<svg width="74" height="74" viewBox="0 0 74 74" fill="none" xmlns="http://www.w3.org/2000/svg">
<g clip-path="url(#clip0_1315_4285)">
<path d="M0 36.6754C12.2498 24.4256 24.5242 12.2005 36.8232 0C41.4807 4.65003 46.1751 9.2705 50.7955 13.9575C47.1583 17.6317 43.4471 21.2283 39.7766 24.8692C42.6376 27.7302 45.5134 30.5727 48.3781 33.4263C52.0449 29.7669 55.708 26.1038 59.3268 22.4C63.9546 27.1572 68.7895 31.726 73.373 36.5201C73.1992 37.3481 72.2641 37.8287 71.7355 38.4755C60.0673 50.0575 48.4015 61.6542 36.7382 73.2658C32.0069 68.5837 27.2891 63.8905 22.5848 59.1863C26.2812 55.4456 30.1106 51.849 33.7663 48.0713C30.8721 45.3434 28.0924 42.4935 25.2203 39.736C21.4242 43.3178 17.8793 47.162 14.1608 50.8251C9.44053 46.1085 4.65003 41.4622 0 36.6754ZM36.7345 5.81439C35.5148 7.3161 34.7003 9.10541 34.3689 11.0115C33.7479 14.6746 34.2321 18.7295 36.5867 21.731C37.8878 20.7329 38.9745 19.4947 40.1463 18.3525C41.6988 16.7667 43.3658 15.2956 44.8518 13.647C42.098 11.0743 39.5327 8.31683 36.7345 5.81439ZM28.9278 13.063C27.257 14.8668 25.4162 16.5782 24.2778 18.796C23.3193 20.5667 22.7691 22.5293 22.6674 24.5402C22.5657 26.551 22.9151 28.5591 23.69 30.4174C24.8433 33.3117 27.087 35.548 29.29 37.6623C32.151 40.4863 34.9862 43.3399 37.8545 46.164C39.6214 47.905 41.2182 49.8973 42.1054 52.2408C43.1699 54.9502 43.2401 57.8963 43.8168 60.7203C46.1011 58.5653 48.4446 56.3105 49.7051 53.3756C51.8564 48.5333 50.7807 42.5526 47.2285 38.6566C44.3121 35.5184 41.2145 32.5576 38.1872 29.5303C35.5591 27.0648 32.846 24.4922 31.4487 21.0952C30.1883 18.3784 30.0552 15.3473 29.8889 12.4087C29.5216 12.5483 29.1923 12.7725 28.9278 13.063ZM5.96594 36.6532C8.61254 39.3885 11.285 42.1238 14.1201 44.6632C16.8555 41.9131 19.6129 39.1778 22.278 36.3612C19.6746 32.8392 18.3381 28.5405 18.4855 24.1632C14.2569 28.2809 10.1465 32.5022 5.96594 36.6532ZM51.228 36.8122C53.8672 40.3496 55.0796 44.7483 55.0537 49.1322C59.275 44.97 63.511 40.819 67.6769 36.6015C65.034 33.8551 62.306 31.1826 59.6299 28.4694C56.8354 31.2528 53.9744 33.977 51.228 36.8122ZM28.6801 59.3785C31.4228 62.1138 34.0953 64.9231 36.9674 67.5401C38.1613 64.8639 39.1261 61.9955 39.0226 59.0384C38.9903 56.2521 38.1039 53.5428 36.4832 51.2761C33.8218 53.9264 31.1271 56.5434 28.6617 59.3896L28.6801 59.3785Z" fill="white"/>
<path d="M36.734 5.81384C39.5322 8.31629 42.0975 11.0738 44.8365 13.6465C43.3579 15.295 41.6835 16.7662 40.131 18.3519C38.9593 19.4941 37.8725 20.7324 36.5714 21.7304C34.2316 18.729 33.7474 14.674 34.3536 11.0109C34.6893 9.10343 35.5089 7.314 36.734 5.81384Z" fill="#599F22"/>
<path d="M28.9279 13.062C29.1935 12.771 29.524 12.5468 29.8926 12.4077C30.059 15.3463 30.192 18.3774 31.4525 21.0942C32.8497 24.4912 35.5628 27.0638 38.191 29.5293C41.2183 32.5566 44.3159 35.5174 47.2323 38.6556C50.7845 42.5516 51.8601 48.5323 49.7089 53.3746C48.4484 56.3095 46.1049 58.5495 43.8205 60.7193C43.2439 57.8953 43.1737 54.9492 42.1091 52.2398C41.222 49.8963 39.6252 47.904 37.8583 46.163C34.9899 43.3389 32.1548 40.4853 29.2938 37.6613C27.076 35.547 24.8582 33.3107 23.6938 30.4164C22.9183 28.5584 22.5683 26.5504 22.6694 24.5396C22.7704 22.5287 23.32 20.566 24.2778 18.795C25.4163 16.5772 27.2571 14.8658 28.9279 13.062Z" fill="#599F22"/>
<path d="M5.9668 36.6524C10.1474 32.5014 14.2578 28.2801 18.4864 24.1735C18.3389 28.5508 19.6754 32.8494 22.2789 36.3715C19.6138 39.1881 16.8563 41.916 14.121 44.6735C11.2859 42.123 8.6134 39.3877 5.9668 36.6524Z" fill="#599F22"/>
<path d="M51.2275 36.811C53.9739 33.9759 56.8349 31.2664 59.6294 28.4646C62.3056 31.1814 65.0335 33.8539 67.6764 36.5966C63.5106 40.8142 59.2745 44.9652 55.0533 49.1273C55.0792 44.7471 53.8667 40.3484 51.2275 36.811Z" fill="#599F22"/>
<path d="M28.6611 59.3885C31.1266 56.5534 33.8361 53.9363 36.4642 51.2565C38.0849 53.5232 38.9712 56.2325 39.0036 59.0188C39.1071 61.9759 38.1423 64.8554 36.9484 67.5205C34.0763 64.933 31.4038 62.1127 28.6611 59.3885Z" fill="#599F22"/>
</g>
<defs>
<clipPath id="clip0_1315_4285">
<rect width="73.373" height="73.2658" fill="white"/>
</clipPath>
</defs>
</svg>
