<svg width="37" height="37" viewBox="0 0 37 37" fill="none" xmlns="http://www.w3.org/2000/svg">
<path opacity="0.1" fill-rule="evenodd" clip-rule="evenodd" d="M18.4518 36C28.1571 36 36.0248 28.165 36.0248 18.5C36.0248 8.83502 28.1571 1 18.4518 1C8.74658 1 0.878906 8.83502 0.878906 18.5C0.878906 28.165 8.74658 36 18.4518 36Z" stroke="#444444" stroke-width="1.5"/>
<path d="M20.0519 14.0208H21.667C21.8156 14.0208 21.9362 13.9076 21.9362 13.7682V12.2526C21.9362 12.1132 21.8156 12 21.667 12H20.0519C18.4196 12 17.0909 13.2463 17.0909 14.7786V16.5468H15.2067C15.0581 16.5468 14.9375 16.6599 14.9375 16.7994V18.3149C14.9375 18.4544 15.0581 18.5675 15.2067 18.5675H17.0909V23.8721C17.0909 24.0115 17.2115 24.1247 17.3601 24.1247H18.9752C19.1238 24.1247 19.2444 24.0115 19.2444 23.8721V18.5675H21.1286C21.2444 18.5675 21.3472 18.4978 21.3843 18.3948L21.9227 16.8792C21.9502 16.8024 21.9362 16.7175 21.8856 16.6513C21.8344 16.5857 21.7537 16.5468 21.667 16.5468H19.2444V14.7786C19.2444 14.3608 19.6067 14.0208 20.0519 14.0208Z" fill="#336F09"/>
</svg>
