<svg width="148" height="54" viewBox="0 0 148 54" fill="none" xmlns="http://www.w3.org/2000/svg">
<rect width="148" height="54" rx="10" fill="#EFF6E9"/>
<path d="M56.0028 29.5046H58.1077V23.4214H65.0629V29.5046H67.1747V15.5534H65.0629V21.6162H58.1077V15.5534H56.0028V29.5046ZM71.4187 29.5046L72.6993 25.8125H78.1491L79.4229 29.5046H81.6573L76.6368 15.5534H74.2048L69.1843 29.5046H71.4187ZM73.3124 24.0413L75.3697 18.0875H75.4787L77.536 24.0413H73.3124ZM94.9325 15.5534H92.8479V25.7988H92.7185L85.6203 15.5534H83.672V29.5046H85.7769V19.2728H85.9064L92.9978 29.5046H94.9325V15.5534ZM107.445 19.9608H109.604C109.134 17.2428 106.811 15.3626 103.8 15.3626C100.19 15.3626 97.5534 18.0807 97.5534 22.5358C97.5534 26.9501 100.115 29.6954 103.896 29.6954C107.281 29.6954 109.699 27.4746 109.699 23.9527V22.3655H104.216V24.1026H107.663C107.615 26.3506 106.13 27.7744 103.896 27.7744C101.436 27.7744 99.6447 25.9146 99.6447 22.5222C99.6447 19.1434 101.45 17.2837 103.814 17.2837C105.667 17.2837 106.92 18.3055 107.445 19.9608ZM112.372 29.5046H121.2V27.6926H114.476V23.4214H120.662V21.6162H114.476V17.3654H121.118V15.5534H112.372V29.5046ZM123.93 29.5046H126.035V24.2252H128.896C128.944 24.2252 128.985 24.2252 129.032 24.2252L131.866 29.5046H134.264L131.171 23.8574C132.881 23.2238 133.733 21.8001 133.733 19.9268C133.733 17.3586 132.139 15.5534 128.903 15.5534H123.93V29.5046ZM126.035 22.4132V17.3586H128.678C130.756 17.3586 131.614 18.3464 131.614 19.9268C131.614 21.5004 130.756 22.4132 128.705 22.4132H126.035Z" fill="#001041"/>
<path d="M56.0028 29.5046H55.498V30.0095H56.0028V29.5046ZM58.1077 29.5046V30.0095H58.6126V29.5046H58.1077ZM58.1077 23.4214V22.9166H57.6029V23.4214H58.1077ZM65.0629 23.4214H65.5678V22.9166H65.0629V23.4214ZM65.0629 29.5046H64.5581V30.0095H65.0629V29.5046ZM67.1747 29.5046V30.0095H67.6795V29.5046H67.1747ZM67.1747 15.5534H67.6795V15.0486H67.1747V15.5534ZM65.0629 15.5534V15.0486H64.5581V15.5534H65.0629ZM65.0629 21.6162V22.121H65.5678V21.6162H65.0629ZM58.1077 21.6162H57.6029V22.121H58.1077V21.6162ZM58.1077 15.5534H58.6126V15.0486H58.1077V15.5534ZM56.0028 15.5534V15.0486H55.498V15.5534H56.0028ZM56.0028 30.0095H58.1077V28.9998H56.0028V30.0095ZM58.6126 29.5046V23.4214H57.6029V29.5046H58.6126ZM58.1077 23.9262H65.0629V22.9166H58.1077V23.9262ZM64.5581 23.4214V29.5046H65.5678V23.4214H64.5581ZM65.0629 30.0095H67.1747V28.9998H65.0629V30.0095ZM67.6795 29.5046V15.5534H66.6699V29.5046H67.6795ZM67.1747 15.0486H65.0629V16.0582H67.1747V15.0486ZM64.5581 15.5534V21.6162H65.5678V15.5534H64.5581ZM65.0629 21.1114H58.1077V22.121H65.0629V21.1114ZM58.6126 21.6162V15.5534H57.6029V21.6162H58.6126ZM58.1077 15.0486H56.0028V16.0582H58.1077V15.0486ZM55.498 15.5534V29.5046H56.5076V15.5534H55.498ZM71.4187 29.5046V30.0095H71.7779L71.8956 29.6701L71.4187 29.5046ZM72.6993 25.8125V25.3076H72.3401L72.2224 25.647L72.6993 25.8125ZM78.1491 25.8125L78.6263 25.6478L78.5089 25.3076H78.1491V25.8125ZM79.4229 29.5046L78.9457 29.6693L79.0631 30.0095H79.4229V29.5046ZM81.6573 29.5046V30.0095H82.3755L82.1323 29.3337L81.6573 29.5046ZM76.6368 15.5534L77.1118 15.3824L76.9916 15.0486H76.6368V15.5534ZM74.2048 15.5534V15.0486H73.85L73.7298 15.3824L74.2048 15.5534ZM69.1843 29.5046L68.7093 29.3337L68.4661 30.0095H69.1843V29.5046ZM73.3124 24.0413L72.8353 23.8764L72.6039 24.5461H73.3124V24.0413ZM75.3697 18.0875V17.5827H75.01L74.8926 17.9226L75.3697 18.0875ZM75.4787 18.0875L75.9558 17.9226L75.8384 17.5827H75.4787V18.0875ZM77.536 24.0413V24.5461H78.2445L78.0131 23.8764L77.536 24.0413ZM71.8956 29.6701L73.1763 25.9779L72.2224 25.647L70.9417 29.3392L71.8956 29.6701ZM72.6993 26.3173H78.1491V25.3076H72.6993V26.3173ZM77.6718 25.9771L78.9457 29.6693L79.9001 29.34L78.6263 25.6478L77.6718 25.9771ZM79.4229 30.0095H81.6573V28.9998H79.4229V30.0095ZM82.1323 29.3337L77.1118 15.3824L76.1618 15.7243L81.1823 29.6756L82.1323 29.3337ZM76.6368 15.0486H74.2048V16.0582H76.6368V15.0486ZM73.7298 15.3824L68.7093 29.3337L69.6593 29.6756L74.6798 15.7243L73.7298 15.3824ZM69.1843 30.0095H71.4187V28.9998H69.1843V30.0095ZM73.7896 24.2062L75.8468 18.2524L74.8926 17.9226L72.8353 23.8764L73.7896 24.2062ZM75.3697 18.5923H75.4787V17.5827H75.3697V18.5923ZM75.0016 18.2524L77.0588 24.2062L78.0131 23.8764L75.9558 17.9226L75.0016 18.2524ZM77.536 23.5365H73.3124V24.5461H77.536V23.5365ZM94.9325 15.5534H95.4373V15.0486H94.9325V15.5534ZM92.8479 15.5534V15.0486H92.3431V15.5534H92.8479ZM92.8479 25.7988V26.3037H93.3528V25.7988H92.8479ZM92.7185 25.7988L92.3036 26.0863L92.4541 26.3037H92.7185V25.7988ZM85.6203 15.5534L86.0352 15.2659L85.8846 15.0486H85.6203V15.5534ZM83.672 15.5534V15.0486H83.1672V15.5534H83.672ZM83.672 29.5046H83.1672V30.0095H83.672V29.5046ZM85.7769 29.5046V30.0095H86.2818V29.5046H85.7769ZM85.7769 19.2728V18.768H85.2721V19.2728H85.7769ZM85.9064 19.2728L86.3213 18.9852L86.1707 18.768H85.9064V19.2728ZM92.9978 29.5046L92.5829 29.7922L92.7335 30.0095H92.9978V29.5046ZM94.9325 29.5046V30.0095H95.4373V29.5046H94.9325ZM94.9325 15.0486H92.8479V16.0582H94.9325V15.0486ZM92.3431 15.5534V25.7988H93.3528V15.5534H92.3431ZM92.8479 25.294H92.7185V26.3037H92.8479V25.294ZM93.1335 25.5113L86.0352 15.2659L85.2053 15.8409L92.3036 26.0863L93.1335 25.5113ZM85.6203 15.0486H83.672V16.0582H85.6203V15.0486ZM83.1672 15.5534V29.5046H84.1768V15.5534H83.1672ZM83.672 30.0095H85.7769V28.9998H83.672V30.0095ZM86.2818 29.5046V19.2728H85.2721V29.5046H86.2818ZM85.7769 19.7776H85.9064V18.768H85.7769V19.7776ZM85.4915 19.5604L92.5829 29.7922L93.4127 29.2171L86.3213 18.9852L85.4915 19.5604ZM92.9978 30.0095H94.9325V28.9998H92.9978V30.0095ZM95.4373 29.5046V15.5534H94.4276V29.5046H95.4373ZM107.445 19.9608L106.963 20.1133L107.075 20.4656H107.445V19.9608ZM109.604 19.9608V20.4656H110.204L110.102 19.8748L109.604 19.9608ZM109.699 22.3655H110.204V21.8607H109.699V22.3655ZM104.216 22.3655V21.8607H103.711V22.3655H104.216ZM104.216 24.1026H103.711V24.6074H104.216V24.1026ZM107.663 24.1026L108.167 24.1133L108.178 23.5978H107.663V24.1026ZM107.445 20.4656H109.604V19.456H107.445V20.4656ZM110.102 19.8748C109.586 16.8919 107.033 14.8578 103.8 14.8578V15.8675C106.589 15.8675 108.682 17.5937 109.107 20.0469L110.102 19.8748ZM103.8 14.8578C101.862 14.8578 100.16 15.5909 98.9473 16.9413C97.738 18.2878 97.0486 20.2094 97.0486 22.5358H98.0582C98.0582 20.4071 98.687 18.7421 99.6985 17.6159C100.706 16.4934 102.128 15.8675 103.8 15.8675V14.8578ZM97.0486 22.5358C97.0486 24.839 97.7178 26.7584 98.9313 28.1084C100.149 29.4634 101.876 30.2002 103.896 30.2002V29.1906C102.134 29.1906 100.69 28.5547 99.6821 27.4335C98.6698 26.3073 98.0582 24.6469 98.0582 22.5358H97.0486ZM103.896 30.2002C105.7 30.2002 107.283 29.6069 108.418 28.5074C109.556 27.4058 110.204 25.8336 110.204 23.9527H109.195C109.195 25.5938 108.634 26.8929 107.716 27.7821C106.796 28.6735 105.477 29.1906 103.896 29.1906V30.2002ZM110.204 23.9527V22.3655H109.195V23.9527H110.204ZM109.699 21.8607H104.216V22.8703H109.699V21.8607ZM103.711 22.3655V24.1026H104.721V22.3655H103.711ZM104.216 24.6074H107.663V23.5978H104.216V24.6074ZM107.158 24.0919C107.136 25.1045 106.794 25.8886 106.248 26.4192C105.7 26.9503 104.904 27.2695 103.896 27.2695V28.2792C105.122 28.2792 106.185 27.8866 106.951 27.1438C107.717 26.4005 108.141 25.3487 108.167 24.1133L107.158 24.0919ZM103.896 27.2695C102.801 27.2695 101.884 26.8604 101.233 26.0936C100.575 25.3191 100.15 24.1332 100.15 22.5222H99.1399C99.1399 24.3037 99.6107 25.7438 100.463 26.7473C101.322 27.7584 102.53 28.2792 103.896 28.2792V27.2695ZM100.15 22.5222C100.15 20.9196 100.577 19.7353 101.229 18.9609C101.875 18.1935 102.773 17.7885 103.814 17.7885V16.7788C102.491 16.7788 101.304 17.3037 100.457 18.3108C99.6148 19.311 99.1399 20.746 99.1399 22.5222H100.15ZM103.814 17.7885C104.644 17.7885 105.31 18.0159 105.823 18.4039C106.337 18.7933 106.727 19.3682 106.963 20.1133L107.926 19.8083C107.637 18.8981 107.139 18.1344 106.432 17.5991C105.723 17.0624 104.836 16.7788 103.814 16.7788V17.7885ZM112.372 29.5046H111.867V30.0095H112.372V29.5046ZM121.2 29.5046V30.0095H121.705V29.5046H121.2ZM121.2 27.6926H121.705V27.1878H121.2V27.6926ZM114.476 27.6926H113.972V28.1974H114.476V27.6926ZM114.476 23.4214V22.9166H113.972V23.4214H114.476ZM120.662 23.4214V23.9262H121.167V23.4214H120.662ZM120.662 21.6162H121.167V21.1114H120.662V21.6162ZM114.476 21.6162H113.972V22.121H114.476V21.6162ZM114.476 17.3654V16.8606H113.972V17.3654H114.476ZM121.118 17.3654V17.8702H121.623V17.3654H121.118ZM121.118 15.5534H121.623V15.0486H121.118V15.5534ZM112.372 15.5534V15.0486H111.867V15.5534H112.372ZM112.372 30.0095H121.2V28.9998H112.372V30.0095ZM121.705 29.5046V27.6926H120.695V29.5046H121.705ZM121.2 27.1878H114.476V28.1974H121.2V27.1878ZM114.981 27.6926V23.4214H113.972V27.6926H114.981ZM114.476 23.9262H120.662V22.9166H114.476V23.9262ZM121.167 23.4214V21.6162H120.157V23.4214H121.167ZM120.662 21.1114H114.476V22.121H120.662V21.1114ZM114.981 21.6162V17.3654H113.972V21.6162H114.981ZM114.476 17.8702H121.118V16.8606H114.476V17.8702ZM121.623 17.3654V15.5534H120.613V17.3654H121.623ZM121.118 15.0486H112.372V16.0582H121.118V15.0486ZM111.867 15.5534V29.5046H112.876V15.5534H111.867ZM123.93 29.5046H123.425V30.0095H123.93V29.5046ZM126.035 29.5046V30.0095H126.54V29.5046H126.035ZM126.035 24.2252V23.7204H125.53V24.2252H126.035ZM129.032 24.2252L129.477 23.9865L129.334 23.7204H129.032V24.2252ZM131.866 29.5046L131.421 29.7434L131.564 30.0095H131.866V29.5046ZM134.264 29.5046V30.0095H135.116L134.707 29.2622L134.264 29.5046ZM131.171 23.8574L130.996 23.384L130.448 23.5871L130.729 24.0999L131.171 23.8574ZM123.93 15.5534V15.0486H123.425V15.5534H123.93ZM126.035 22.4132H125.53V22.918H126.035V22.4132ZM126.035 17.3586V16.8538H125.53V17.3586H126.035ZM123.93 30.0095H126.035V28.9998H123.93V30.0095ZM126.54 29.5046V24.2252H125.53V29.5046H126.54ZM126.035 24.73H128.896V23.7204H126.035V24.73ZM128.896 24.73C128.896 24.73 128.896 24.73 128.896 24.73C128.896 24.73 128.897 24.73 128.897 24.73C128.897 24.73 128.897 24.73 128.897 24.73C128.897 24.73 128.897 24.73 128.897 24.73C128.897 24.73 128.897 24.73 128.897 24.73C128.898 24.73 128.898 24.73 128.898 24.73C128.898 24.73 128.898 24.73 128.898 24.73C128.898 24.73 128.898 24.73 128.898 24.73C128.898 24.73 128.898 24.73 128.899 24.73C128.899 24.73 128.899 24.73 128.899 24.73C128.899 24.73 128.899 24.73 128.899 24.73C128.899 24.73 128.899 24.73 128.899 24.73C128.899 24.73 128.9 24.73 128.9 24.73C128.9 24.73 128.9 24.73 128.9 24.73C128.9 24.73 128.9 24.73 128.9 24.73C128.9 24.73 128.9 24.73 128.901 24.73C128.901 24.73 128.901 24.73 128.901 24.73C128.901 24.73 128.901 24.73 128.901 24.73C128.901 24.73 128.901 24.73 128.901 24.73C128.901 24.73 128.902 24.73 128.902 24.73C128.902 24.73 128.902 24.73 128.902 24.73C128.902 24.73 128.902 24.73 128.902 24.73C128.902 24.73 128.902 24.73 128.902 24.73C128.903 24.73 128.903 24.73 128.903 24.73C128.903 24.73 128.903 24.73 128.903 24.73C128.903 24.73 128.903 24.73 128.903 24.73C128.903 24.73 128.903 24.73 128.904 24.73C128.904 24.73 128.904 24.73 128.904 24.73C128.904 24.73 128.904 24.73 128.904 24.73C128.904 24.73 128.904 24.73 128.904 24.73C128.904 24.73 128.905 24.73 128.905 24.73C128.905 24.73 128.905 24.73 128.905 24.73C128.905 24.73 128.905 24.73 128.905 24.73C128.905 24.73 128.905 24.73 128.905 24.73C128.906 24.73 128.906 24.73 128.906 24.73C128.906 24.73 128.906 24.73 128.906 24.73C128.906 24.73 128.906 24.73 128.906 24.73C128.906 24.73 128.906 24.73 128.907 24.73C128.907 24.73 128.907 24.73 128.907 24.73C128.907 24.73 128.907 24.73 128.907 24.73C128.907 24.73 128.907 24.73 128.907 24.73C128.907 24.73 128.908 24.73 128.908 24.73C128.908 24.73 128.908 24.73 128.908 24.73C128.908 24.73 128.908 24.73 128.908 24.73C128.908 24.73 128.908 24.73 128.908 24.73C128.909 24.73 128.909 24.73 128.909 24.73C128.909 24.73 128.909 24.73 128.909 24.73C128.909 24.73 128.909 24.73 128.909 24.73C128.909 24.73 128.909 24.73 128.91 24.73C128.91 24.73 128.91 24.73 128.91 24.73C128.91 24.73 128.91 24.73 128.91 24.73C128.91 24.73 128.91 24.73 128.91 24.73C128.91 24.73 128.911 24.73 128.911 24.73C128.911 24.73 128.911 24.73 128.911 24.73C128.911 24.73 128.911 24.73 128.911 24.73C128.911 24.73 128.911 24.73 128.911 24.73C128.912 24.73 128.912 24.73 128.912 24.73C128.912 24.73 128.912 24.73 128.912 24.73C128.912 24.73 128.912 24.73 128.912 24.73C128.912 24.73 128.912 24.73 128.913 24.73C128.913 24.73 128.913 24.73 128.913 24.73C128.913 24.73 128.913 24.73 128.913 24.73C128.913 24.73 128.913 24.73 128.913 24.73C128.913 24.73 128.914 24.73 128.914 24.73C128.914 24.73 128.914 24.73 128.914 24.73C128.914 24.73 128.914 24.73 128.914 24.73C128.914 24.73 128.914 24.73 128.914 24.73C128.915 24.73 128.915 24.73 128.915 24.73C128.915 24.73 128.915 24.73 128.915 24.73C128.915 24.73 128.915 24.73 128.915 24.73C128.915 24.73 128.915 24.73 128.916 24.73C128.916 24.73 128.916 24.73 128.916 24.73C128.916 24.73 128.916 24.73 128.916 24.73C128.916 24.73 128.916 24.73 128.916 24.73C128.916 24.73 128.917 24.73 128.917 24.73C128.917 24.73 128.917 24.73 128.917 24.73C128.917 24.73 128.917 24.73 128.917 24.73C128.917 24.73 128.917 24.73 128.917 24.73C128.918 24.73 128.918 24.73 128.918 24.73C128.918 24.73 128.918 24.73 128.918 24.73C128.918 24.73 128.918 24.73 128.918 24.73C128.918 24.73 128.918 24.73 128.919 24.73C128.919 24.73 128.919 24.73 128.919 24.73C128.919 24.73 128.919 24.73 128.919 24.73C128.919 24.73 128.919 24.73 128.919 24.73C128.919 24.73 128.919 24.73 128.92 24.73C128.92 24.73 128.92 24.73 128.92 24.73C128.92 24.73 128.92 24.73 128.92 24.73C128.92 24.73 128.92 24.73 128.92 24.73C128.92 24.73 128.921 24.73 128.921 24.73C128.921 24.73 128.921 24.73 128.921 24.73C128.921 24.73 128.921 24.73 128.921 24.73C128.921 24.73 128.921 24.73 128.921 24.73C128.922 24.73 128.922 24.73 128.922 24.73C128.922 24.73 128.922 24.73 128.922 24.73C128.922 24.73 128.922 24.73 128.922 24.73C128.922 24.73 128.922 24.73 128.923 24.73C128.923 24.73 128.923 24.73 128.923 24.73C128.923 24.73 128.923 24.73 128.923 24.73C128.923 24.73 128.923 24.73 128.923 24.73C128.923 24.73 128.924 24.73 128.924 24.73C128.924 24.73 128.924 24.73 128.924 24.73C128.924 24.73 128.924 24.73 128.924 24.73C128.924 24.73 128.924 24.73 128.924 24.73C128.924 24.73 128.925 24.73 128.925 24.73C128.925 24.73 128.925 24.73 128.925 24.73C128.925 24.73 128.925 24.73 128.925 24.73C128.925 24.73 128.925 24.73 128.925 24.73C128.926 24.73 128.926 24.73 128.926 24.73C128.926 24.73 128.926 24.73 128.926 24.73C128.926 24.73 128.926 24.73 128.926 24.73C128.926 24.73 128.926 24.73 128.927 24.73C128.927 24.73 128.927 24.73 128.927 24.73C128.927 24.73 128.927 24.73 128.927 24.73C128.927 24.73 128.927 24.73 128.927 24.73C128.927 24.73 128.927 24.73 128.928 24.73C128.928 24.73 128.928 24.73 128.928 24.73C128.928 24.73 128.928 24.73 128.928 24.73C128.928 24.73 128.928 24.73 128.928 24.73C128.928 24.73 128.929 24.73 128.929 24.73C128.929 24.73 128.929 24.73 128.929 24.73C128.929 24.73 128.929 24.73 128.929 24.73C128.929 24.73 128.929 24.73 128.929 24.73C128.93 24.73 128.93 24.73 128.93 24.73C128.93 24.73 128.93 24.73 128.93 24.73C128.93 24.73 128.93 24.73 128.93 24.73C128.93 24.73 128.93 24.73 128.93 24.73C128.931 24.73 128.931 24.73 128.931 24.73C128.931 24.73 128.931 24.73 128.931 24.73C128.931 24.73 128.931 24.73 128.931 24.73C128.931 24.73 128.931 24.73 128.932 24.73C128.932 24.73 128.932 24.73 128.932 24.73C128.932 24.73 128.932 24.73 128.932 24.73C128.932 24.73 128.932 24.73 128.932 24.73C128.932 24.73 128.933 24.73 128.933 24.73C128.933 24.73 128.933 24.73 128.933 24.73C128.933 24.73 128.933 24.73 128.933 24.73C128.933 24.73 128.933 24.73 128.933 24.73C128.933 24.73 128.934 24.73 128.934 24.73C128.934 24.73 128.934 24.73 128.934 24.73C128.934 24.73 128.934 24.73 128.934 24.73C128.934 24.73 128.934 24.73 128.934 24.73C128.935 24.73 128.935 24.73 128.935 24.73C128.935 24.73 128.935 24.73 128.935 24.73C128.935 24.73 128.935 24.73 128.935 24.73C128.935 24.73 128.935 24.73 128.936 24.73C128.936 24.73 128.936 24.73 128.936 24.73C128.936 24.73 128.936 24.73 128.936 24.73C128.936 24.73 128.936 24.73 128.936 24.73C128.936 24.73 128.936 24.73 128.937 24.73C128.937 24.73 128.937 24.73 128.937 24.73C128.937 24.73 128.937 24.73 128.937 24.73C128.937 24.73 128.937 24.73 128.937 24.73C128.937 24.73 128.938 24.73 128.938 24.73C128.938 24.73 128.938 24.73 128.938 24.73C128.938 24.73 128.938 24.73 128.938 24.73C128.938 24.73 128.938 24.73 128.938 24.73C128.938 24.73 128.939 24.73 128.939 24.73C128.939 24.73 128.939 24.73 128.939 24.73C128.939 24.73 128.939 24.73 128.939 24.73C128.939 24.73 128.939 24.73 128.939 24.73C128.94 24.73 128.94 24.73 128.94 24.73C128.94 24.73 128.94 24.73 128.94 24.73C128.94 24.73 128.94 24.73 128.94 24.73C128.94 24.73 128.94 24.73 128.94 24.73C128.941 24.73 128.941 24.73 128.941 24.73C128.941 24.73 128.941 24.73 128.941 24.73C128.941 24.73 128.941 24.73 128.941 24.73C128.941 24.73 128.941 24.73 128.942 24.73C128.942 24.73 128.942 24.73 128.942 24.73C128.942 24.73 128.942 24.73 128.942 24.73C128.942 24.73 128.942 24.73 128.942 24.73C128.942 24.73 128.943 24.73 128.943 24.73C128.943 24.73 128.943 24.73 128.943 24.73C128.943 24.73 128.943 24.73 128.943 24.73C128.943 24.73 128.943 24.73 128.943 24.73C128.943 24.73 128.944 24.73 128.944 24.73C128.944 24.73 128.944 24.73 128.944 24.73C128.944 24.73 128.944 24.73 128.944 24.73C128.944 24.73 128.944 24.73 128.944 24.73C128.945 24.73 128.945 24.73 128.945 24.73C128.945 24.73 128.945 24.73 128.945 24.73C128.945 24.73 128.945 24.73 128.945 24.73C128.945 24.73 128.945 24.73 128.945 24.73C128.946 24.73 128.946 24.73 128.946 24.73C128.946 24.73 128.946 24.73 128.946 24.73C128.946 24.73 128.946 24.73 128.946 24.73C128.946 24.73 128.946 24.73 128.947 24.73C128.947 24.73 128.947 24.73 128.947 24.73C128.947 24.73 128.947 24.73 128.947 24.73C128.947 24.73 128.947 24.73 128.947 24.73C128.947 24.73 128.947 24.73 128.948 24.73C128.948 24.73 128.948 24.73 128.948 24.73C128.948 24.73 128.948 24.73 128.948 24.73C128.948 24.73 128.948 24.73 128.948 24.73C128.948 24.73 128.949 24.73 128.949 24.73C128.949 24.73 128.949 24.73 128.949 24.73C128.949 24.73 128.949 24.73 128.949 24.73C128.949 24.73 128.949 24.73 128.949 24.73C128.949 24.73 128.95 24.73 128.95 24.73C128.95 24.73 128.95 24.73 128.95 24.73C128.95 24.73 128.95 24.73 128.95 24.73C128.95 24.73 128.95 24.73 128.95 24.73C128.951 24.73 128.951 24.73 128.951 24.73C128.951 24.73 128.951 24.73 128.951 24.73C128.951 24.73 128.951 24.73 128.951 24.73C128.951 24.73 128.951 24.73 128.951 24.73C128.952 24.73 128.952 24.73 128.952 24.73C128.952 24.73 128.952 24.73 128.952 24.73C128.952 24.73 128.952 24.73 128.952 24.73C128.952 24.73 128.952 24.73 128.952 24.73C128.953 24.73 128.953 24.73 128.953 24.73C128.953 24.73 128.953 24.73 128.953 24.73C128.953 24.73 128.953 24.73 128.953 24.73C128.953 24.73 128.953 24.73 128.954 24.73C128.954 24.73 128.954 24.73 128.954 24.73C128.954 24.73 128.954 24.73 128.954 24.73C128.954 24.73 128.954 24.73 128.954 24.73C128.954 24.73 128.954 24.73 128.955 24.73C128.955 24.73 128.955 24.73 128.955 24.73C128.955 24.73 128.955 24.73 128.955 24.73C128.955 24.73 128.955 24.73 128.955 24.73C128.955 24.73 128.956 24.73 128.956 24.73C128.956 24.73 128.956 24.73 128.956 24.73C128.956 24.73 128.956 24.73 128.956 24.73C128.956 24.73 128.956 24.73 128.956 24.73C128.956 24.73 128.957 24.73 128.957 24.73C128.957 24.73 128.957 24.73 128.957 24.73C128.957 24.73 128.957 24.73 128.957 24.73C128.957 24.73 128.957 24.73 128.957 24.73C128.958 24.73 128.958 24.73 128.958 24.73C128.958 24.73 128.958 24.73 128.958 24.73C128.958 24.73 128.958 24.73 128.958 24.73C128.958 24.73 128.958 24.73 128.958 24.73C128.959 24.73 128.959 24.73 128.959 24.73C128.959 24.73 128.959 24.73 128.959 24.73C128.959 24.73 128.959 24.73 128.959 24.73C128.959 24.73 128.959 24.73 128.96 24.73C128.96 24.73 128.96 24.73 128.96 24.73C128.96 24.73 128.96 24.73 128.96 24.73C128.96 24.73 128.96 24.73 128.96 24.73C128.96 24.73 128.96 24.73 128.961 24.73C128.961 24.73 128.961 24.73 128.961 24.73C128.961 24.73 128.961 24.73 128.961 24.73C128.961 24.73 128.961 24.73 128.961 24.73C128.961 24.73 128.962 24.73 128.962 24.73C128.962 24.73 128.962 24.73 128.962 24.73C128.962 24.73 128.962 24.73 128.962 24.73C128.962 24.73 128.962 24.73 128.962 24.73C128.962 24.73 128.963 24.73 128.963 24.73C128.963 24.73 128.963 24.73 128.963 24.73C128.963 24.73 128.963 24.73 128.963 24.73C128.963 24.73 128.963 24.73 128.963 24.73C128.963 24.73 128.964 24.73 128.964 24.73C128.964 24.73 128.964 24.73 128.964 24.73C128.964 24.73 128.964 24.73 128.964 24.73C128.964 24.73 128.964 24.73 128.964 24.73C128.965 24.73 128.965 24.73 128.965 24.73C128.965 24.73 128.965 24.73 128.965 24.73C128.965 24.73 128.965 24.73 128.965 24.73C128.965 24.73 128.965 24.73 128.965 24.73C128.966 24.73 128.966 24.73 128.966 24.73C128.966 24.73 128.966 24.73 128.966 24.73C128.966 24.73 128.966 24.73 128.966 24.73C128.966 24.73 128.966 24.73 128.967 24.73C128.967 24.73 128.967 24.73 128.967 24.73C128.967 24.73 128.967 24.73 128.967 24.73C128.967 24.73 128.967 24.73 128.967 24.73C128.967 24.73 128.967 24.73 128.968 24.73C128.968 24.73 128.968 24.73 128.968 24.73C128.968 24.73 128.968 24.73 128.968 24.73C128.968 24.73 128.968 24.73 128.968 24.73C128.968 24.73 128.969 24.73 128.969 24.73C128.969 24.73 128.969 24.73 128.969 24.73C128.969 24.73 128.969 24.73 128.969 24.73C128.969 24.73 128.969 24.73 128.969 24.73C128.969 24.73 128.97 24.73 128.97 24.73C128.97 24.73 128.97 24.73 128.97 24.73C128.97 24.73 128.97 24.73 128.97 24.73C128.97 24.73 128.97 24.73 128.97 24.73C128.97 24.73 128.971 24.73 128.971 24.73C128.971 24.73 128.971 24.73 128.971 24.73C128.971 24.73 128.971 24.73 128.971 24.73C128.971 24.73 128.971 24.73 128.971 24.73C128.972 24.73 128.972 24.73 128.972 24.73C128.972 24.73 128.972 24.73 128.972 24.73C128.972 24.73 128.972 24.73 128.972 24.73C128.972 24.73 128.972 24.73 128.972 24.73C128.973 24.73 128.973 24.73 128.973 24.73C128.973 24.73 128.973 24.73 128.973 24.73C128.973 24.73 128.973 24.73 128.973 24.73C128.973 24.73 128.973 24.73 128.974 24.73C128.974 24.73 128.974 24.73 128.974 24.73C128.974 24.73 128.974 24.73 128.974 24.73C128.974 24.73 128.974 24.73 128.974 24.73C128.974 24.73 128.974 24.73 128.975 24.73C128.975 24.73 128.975 24.73 128.975 24.73C128.975 24.73 128.975 24.73 128.975 24.73C128.975 24.73 128.975 24.73 128.975 24.73C128.975 24.73 128.976 24.73 128.976 24.73C128.976 24.73 128.976 24.73 128.976 24.73C128.976 24.73 128.976 24.73 128.976 24.73C128.976 24.73 128.976 24.73 128.976 24.73C128.976 24.73 128.977 24.73 128.977 24.73C128.977 24.73 128.977 24.73 128.977 24.73C128.977 24.73 128.977 24.73 128.977 24.73C128.977 24.73 128.977 24.73 128.977 24.73C128.978 24.73 128.978 24.73 128.978 24.73C128.978 24.73 128.978 24.73 128.978 24.73C128.978 24.73 128.978 24.73 128.978 24.73C128.978 24.73 128.978 24.73 128.978 24.73C128.979 24.73 128.979 24.73 128.979 24.73C128.979 24.73 128.979 24.73 128.979 24.73C128.979 24.73 128.979 24.73 128.979 24.73C128.979 24.73 128.979 24.73 128.98 24.73C128.98 24.73 128.98 24.73 128.98 24.73C128.98 24.73 128.98 24.73 128.98 24.73C128.98 24.73 128.98 24.73 128.98 24.73C128.98 24.73 128.98 24.73 128.981 24.73C128.981 24.73 128.981 24.73 128.981 24.73C128.981 24.73 128.981 24.73 128.981 24.73C128.981 24.73 128.981 24.73 128.981 24.73C128.981 24.73 128.982 24.73 128.982 24.73C128.982 24.73 128.982 24.73 128.982 24.73C128.982 24.73 128.982 24.73 128.982 24.73C128.982 24.73 128.982 24.73 128.982 24.73C128.982 24.73 128.983 24.73 128.983 24.73C128.983 24.73 128.983 24.73 128.983 24.73C128.983 24.73 128.983 24.73 128.983 24.73C128.983 24.73 128.983 24.73 128.983 24.73C128.984 24.73 128.984 24.73 128.984 24.73C128.984 24.73 128.984 24.73 128.984 24.73C128.984 24.73 128.984 24.73 128.984 24.73C128.984 24.73 128.984 24.73 128.984 24.73C128.985 24.73 128.985 24.73 128.985 24.73C128.985 24.73 128.985 24.73 128.985 24.73C128.985 24.73 128.985 24.73 128.985 24.73C128.985 24.73 128.985 24.73 128.986 24.73C128.986 24.73 128.986 24.73 128.986 24.73C128.986 24.73 128.986 24.73 128.986 24.73C128.986 24.73 128.986 24.73 128.986 24.73C128.986 24.73 128.986 24.73 128.987 24.73C128.987 24.73 128.987 24.73 128.987 24.73C128.987 24.73 128.987 24.73 128.987 24.73C128.987 24.73 128.987 24.73 128.987 24.73C128.987 24.73 128.988 24.73 128.988 24.73C128.988 24.73 128.988 24.73 128.988 24.73C128.988 24.73 128.988 24.73 128.988 24.73C128.988 24.73 128.988 24.73 128.988 24.73C128.988 24.73 128.989 24.73 128.989 24.73C128.989 24.73 128.989 24.73 128.989 24.73C128.989 24.73 128.989 24.73 128.989 24.73C128.989 24.73 128.989 24.73 128.989 24.73C128.99 24.73 128.99 24.73 128.99 24.73C128.99 24.73 128.99 24.73 128.99 24.73C128.99 24.73 128.99 24.73 128.99 24.73C128.99 24.73 128.99 24.73 128.99 24.73C128.991 24.73 128.991 24.73 128.991 24.73C128.991 24.73 128.991 24.73 128.991 24.73C128.991 24.73 128.991 24.73 128.991 24.73C128.991 24.73 128.991 24.73 128.992 24.73C128.992 24.73 128.992 24.73 128.992 24.73C128.992 24.73 128.992 24.73 128.992 24.73C128.992 24.73 128.992 24.73 128.992 24.73C128.992 24.73 128.993 24.73 128.993 24.73C128.993 24.73 128.993 24.73 128.993 24.73C128.993 24.73 128.993 24.73 128.993 24.73C128.993 24.73 128.993 24.73 128.993 24.73C128.993 24.73 128.994 24.73 128.994 24.73C128.994 24.73 128.994 24.73 128.994 24.73C128.994 24.73 128.994 24.73 128.994 24.73C128.994 24.73 128.994 24.73 128.994 24.73C128.995 24.73 128.995 24.73 128.995 24.73C128.995 24.73 128.995 24.73 128.995 24.73C128.995 24.73 128.995 24.73 128.995 24.73C128.995 24.73 128.995 24.73 128.995 24.73C128.996 24.73 128.996 24.73 128.996 24.73C128.996 24.73 128.996 24.73 128.996 24.73C128.996 24.73 128.996 24.73 128.996 24.73C128.996 24.73 128.996 24.73 128.997 24.73C128.997 24.73 128.997 24.73 128.997 24.73C128.997 24.73 128.997 24.73 128.997 24.73C128.997 24.73 128.997 24.73 128.997 24.73C128.997 24.73 128.998 24.73 128.998 24.73C128.998 24.73 128.998 24.73 128.998 24.73C128.998 24.73 128.998 24.73 128.998 24.73C128.998 24.73 128.998 24.73 128.998 24.73C128.998 24.73 128.999 24.73 128.999 24.73C128.999 24.73 128.999 24.73 128.999 24.73C128.999 24.73 128.999 24.73 128.999 24.73C128.999 24.73 128.999 24.73 128.999 24.73C129 24.73 129 24.73 129 24.73C129 24.73 129 24.73 129 24.73C129 24.73 129 24.73 129 24.73C129 24.73 129 24.73 129.001 24.73C129.001 24.73 129.001 24.73 129.001 24.73C129.001 24.73 129.001 24.73 129.001 24.73C129.001 24.73 129.001 24.73 129.001 24.73C129.001 24.73 129.001 24.73 129.002 24.73C129.002 24.73 129.002 24.73 129.002 24.73C129.002 24.73 129.002 24.73 129.002 24.73C129.002 24.73 129.002 24.73 129.002 24.73C129.002 24.73 129.003 24.73 129.003 24.73C129.003 24.73 129.003 24.73 129.003 24.73C129.003 24.73 129.003 24.73 129.003 24.73C129.003 24.73 129.003 24.73 129.003 24.73C129.004 24.73 129.004 24.73 129.004 24.73C129.004 24.73 129.004 24.73 129.004 24.73C129.004 24.73 129.004 24.73 129.004 24.73C129.004 24.73 129.004 24.73 129.005 24.73C129.005 24.73 129.005 24.73 129.005 24.73C129.005 24.73 129.005 24.73 129.005 24.73C129.005 24.73 129.005 24.73 129.005 24.73C129.005 24.73 129.005 24.73 129.006 24.73C129.006 24.73 129.006 24.73 129.006 24.73C129.006 24.73 129.006 24.73 129.006 24.73C129.006 24.73 129.006 24.73 129.006 24.73C129.006 24.73 129.007 24.73 129.007 24.73C129.007 24.73 129.007 24.73 129.007 24.73C129.007 24.73 129.007 24.73 129.007 24.73C129.007 24.73 129.007 24.73 129.007 24.73C129.008 24.73 129.008 24.73 129.008 24.73C129.008 24.73 129.008 24.73 129.008 24.73C129.008 24.73 129.008 24.73 129.008 24.73C129.008 24.73 129.008 24.73 129.009 24.73C129.009 24.73 129.009 24.73 129.009 24.73C129.009 24.73 129.009 24.73 129.009 24.73C129.009 24.73 129.009 24.73 129.009 24.73C129.009 24.73 129.01 24.73 129.01 24.73C129.01 24.73 129.01 24.73 129.01 24.73C129.01 24.73 129.01 24.73 129.01 24.73C129.01 24.73 129.01 24.73 129.01 24.73C129.01 24.73 129.011 24.73 129.011 24.73C129.011 24.73 129.011 24.73 129.011 24.73C129.011 24.73 129.011 24.73 129.011 24.73C129.011 24.73 129.011 24.73 129.011 24.73C129.012 24.73 129.012 24.73 129.012 24.73C129.012 24.73 129.012 24.73 129.012 24.73C129.012 24.73 129.012 24.73 129.012 24.73C129.012 24.73 129.012 24.73 129.013 24.73C129.013 24.73 129.013 24.73 129.013 24.73C129.013 24.73 129.013 24.73 129.013 24.73C129.013 24.73 129.013 24.73 129.013 24.73C129.013 24.73 129.014 24.73 129.014 24.73C129.014 24.73 129.014 24.73 129.014 24.73C129.014 24.73 129.014 24.73 129.014 24.73C129.014 24.73 129.014 24.73 129.014 24.73C129.015 24.73 129.015 24.73 129.015 24.73C129.015 24.73 129.015 24.73 129.015 24.73C129.015 24.73 129.015 24.73 129.015 24.73C129.015 24.73 129.015 24.73 129.016 24.73C129.016 24.73 129.016 24.73 129.016 24.73C129.016 24.73 129.016 24.73 129.016 24.73C129.016 24.73 129.016 24.73 129.016 24.73C129.016 24.73 129.017 24.73 129.017 24.73C129.017 24.73 129.017 24.73 129.017 24.73C129.017 24.73 129.017 24.73 129.017 24.73C129.017 24.73 129.017 24.73 129.017 24.73C129.018 24.73 129.018 24.73 129.018 24.73C129.018 24.73 129.018 24.73 129.018 24.73C129.018 24.73 129.018 24.73 129.018 24.73C129.018 24.73 129.018 24.73 129.019 24.73C129.019 24.73 129.019 24.73 129.019 24.73C129.019 24.73 129.019 24.73 129.019 24.73C129.019 24.73 129.019 24.73 129.019 24.73C129.019 24.73 129.02 24.73 129.02 24.73C129.02 24.73 129.02 24.73 129.02 24.73C129.02 24.73 129.02 24.73 129.02 24.73C129.02 24.73 129.02 24.73 129.02 24.73C129.021 24.73 129.021 24.73 129.021 24.73C129.021 24.73 129.021 24.73 129.021 24.73C129.021 24.73 129.021 24.73 129.021 24.73C129.021 24.73 129.021 24.73 129.022 24.73C129.022 24.73 129.022 24.73 129.022 24.73C129.022 24.73 129.022 24.73 129.022 24.73C129.022 24.73 129.022 24.73 129.022 24.73C129.022 24.73 129.023 24.73 129.023 24.73C129.023 24.73 129.023 24.73 129.023 24.73C129.023 24.73 129.023 24.73 129.023 24.73C129.023 24.73 129.023 24.73 129.023 24.73C129.024 24.73 129.024 24.73 129.024 24.73C129.024 24.73 129.024 24.73 129.024 24.73C129.024 24.73 129.024 24.73 129.024 24.73C129.024 24.73 129.024 24.73 129.025 24.73C129.025 24.73 129.025 24.73 129.025 24.73C129.025 24.73 129.025 24.73 129.025 24.73C129.025 24.73 129.025 24.73 129.025 24.73C129.025 24.73 129.026 24.73 129.026 24.73C129.026 24.73 129.026 24.73 129.026 24.73C129.026 24.73 129.026 24.73 129.026 24.73C129.026 24.73 129.026 24.73 129.026 24.73C129.027 24.73 129.027 24.73 129.027 24.73C129.027 24.73 129.027 24.73 129.027 24.73C129.027 24.73 129.027 24.73 129.027 24.73C129.027 24.73 129.027 24.73 129.028 24.73C129.028 24.73 129.028 24.73 129.028 24.73C129.028 24.73 129.028 24.73 129.028 24.73C129.028 24.73 129.028 24.73 129.028 24.73C129.029 24.73 129.029 24.73 129.029 24.73C129.029 24.73 129.029 24.73 129.029 24.73C129.029 24.73 129.029 24.73 129.029 24.73C129.029 24.73 129.029 24.73 129.03 24.73C129.03 24.73 129.03 24.73 129.03 24.73C129.03 24.73 129.03 24.73 129.03 24.73C129.03 24.73 129.03 24.73 129.03 24.73C129.03 24.73 129.031 24.73 129.031 24.73C129.031 24.73 129.031 24.73 129.031 24.73C129.031 24.73 129.031 24.73 129.031 24.73C129.031 24.73 129.031 24.73 129.031 24.73C129.032 24.73 129.032 24.73 129.032 24.73C129.032 24.73 129.032 24.73 129.032 24.73C129.032 24.73 129.032 24.73 129.032 24.73V23.7204C129.032 23.7204 129.032 23.7204 129.032 23.7204C129.032 23.7204 129.032 23.7204 129.032 23.7204C129.032 23.7204 129.032 23.7204 129.031 23.7204C129.031 23.7204 129.031 23.7204 129.031 23.7204C129.031 23.7204 129.031 23.7204 129.031 23.7204C129.031 23.7204 129.031 23.7204 129.031 23.7204C129.031 23.7204 129.03 23.7204 129.03 23.7204C129.03 23.7204 129.03 23.7204 129.03 23.7204C129.03 23.7204 129.03 23.7204 129.03 23.7204C129.03 23.7204 129.03 23.7204 129.03 23.7204C129.029 23.7204 129.029 23.7204 129.029 23.7204C129.029 23.7204 129.029 23.7204 129.029 23.7204C129.029 23.7204 129.029 23.7204 129.029 23.7204C129.029 23.7204 129.029 23.7204 129.028 23.7204C129.028 23.7204 129.028 23.7204 129.028 23.7204C129.028 23.7204 129.028 23.7204 129.028 23.7204C129.028 23.7204 129.028 23.7204 129.028 23.7204C129.027 23.7204 129.027 23.7204 129.027 23.7204C129.027 23.7204 129.027 23.7204 129.027 23.7204C129.027 23.7204 129.027 23.7204 129.027 23.7204C129.027 23.7204 129.027 23.7204 129.026 23.7204C129.026 23.7204 129.026 23.7204 129.026 23.7204C129.026 23.7204 129.026 23.7204 129.026 23.7204C129.026 23.7204 129.026 23.7204 129.026 23.7204C129.026 23.7204 129.025 23.7204 129.025 23.7204C129.025 23.7204 129.025 23.7204 129.025 23.7204C129.025 23.7204 129.025 23.7204 129.025 23.7204C129.025 23.7204 129.025 23.7204 129.025 23.7204C129.024 23.7204 129.024 23.7204 129.024 23.7204C129.024 23.7204 129.024 23.7204 129.024 23.7204C129.024 23.7204 129.024 23.7204 129.024 23.7204C129.024 23.7204 129.024 23.7204 129.023 23.7204C129.023 23.7204 129.023 23.7204 129.023 23.7204C129.023 23.7204 129.023 23.7204 129.023 23.7204C129.023 23.7204 129.023 23.7204 129.023 23.7204C129.023 23.7204 129.022 23.7204 129.022 23.7204C129.022 23.7204 129.022 23.7204 129.022 23.7204C129.022 23.7204 129.022 23.7204 129.022 23.7204C129.022 23.7204 129.022 23.7204 129.022 23.7204C129.021 23.7204 129.021 23.7204 129.021 23.7204C129.021 23.7204 129.021 23.7204 129.021 23.7204C129.021 23.7204 129.021 23.7204 129.021 23.7204C129.021 23.7204 129.021 23.7204 129.02 23.7204C129.02 23.7204 129.02 23.7204 129.02 23.7204C129.02 23.7204 129.02 23.7204 129.02 23.7204C129.02 23.7204 129.02 23.7204 129.02 23.7204C129.02 23.7204 129.019 23.7204 129.019 23.7204C129.019 23.7204 129.019 23.7204 129.019 23.7204C129.019 23.7204 129.019 23.7204 129.019 23.7204C129.019 23.7204 129.019 23.7204 129.019 23.7204C129.018 23.7204 129.018 23.7204 129.018 23.7204C129.018 23.7204 129.018 23.7204 129.018 23.7204C129.018 23.7204 129.018 23.7204 129.018 23.7204C129.018 23.7204 129.018 23.7204 129.017 23.7204C129.017 23.7204 129.017 23.7204 129.017 23.7204C129.017 23.7204 129.017 23.7204 129.017 23.7204C129.017 23.7204 129.017 23.7204 129.017 23.7204C129.017 23.7204 129.016 23.7204 129.016 23.7204C129.016 23.7204 129.016 23.7204 129.016 23.7204C129.016 23.7204 129.016 23.7204 129.016 23.7204C129.016 23.7204 129.016 23.7204 129.016 23.7204C129.015 23.7204 129.015 23.7204 129.015 23.7204C129.015 23.7204 129.015 23.7204 129.015 23.7204C129.015 23.7204 129.015 23.7204 129.015 23.7204C129.015 23.7204 129.015 23.7204 129.014 23.7204C129.014 23.7204 129.014 23.7204 129.014 23.7204C129.014 23.7204 129.014 23.7204 129.014 23.7204C129.014 23.7204 129.014 23.7204 129.014 23.7204C129.014 23.7204 129.013 23.7204 129.013 23.7204C129.013 23.7204 129.013 23.7204 129.013 23.7204C129.013 23.7204 129.013 23.7204 129.013 23.7204C129.013 23.7204 129.013 23.7204 129.013 23.7204C129.012 23.7204 129.012 23.7204 129.012 23.7204C129.012 23.7204 129.012 23.7204 129.012 23.7204C129.012 23.7204 129.012 23.7204 129.012 23.7204C129.012 23.7204 129.012 23.7204 129.011 23.7204C129.011 23.7204 129.011 23.7204 129.011 23.7204C129.011 23.7204 129.011 23.7204 129.011 23.7204C129.011 23.7204 129.011 23.7204 129.011 23.7204C129.011 23.7204 129.01 23.7204 129.01 23.7204C129.01 23.7204 129.01 23.7204 129.01 23.7204C129.01 23.7204 129.01 23.7204 129.01 23.7204C129.01 23.7204 129.01 23.7204 129.01 23.7204C129.01 23.7204 129.009 23.7204 129.009 23.7204C129.009 23.7204 129.009 23.7204 129.009 23.7204C129.009 23.7204 129.009 23.7204 129.009 23.7204C129.009 23.7204 129.009 23.7204 129.009 23.7204C129.008 23.7204 129.008 23.7204 129.008 23.7204C129.008 23.7204 129.008 23.7204 129.008 23.7204C129.008 23.7204 129.008 23.7204 129.008 23.7204C129.008 23.7204 129.008 23.7204 129.007 23.7204C129.007 23.7204 129.007 23.7204 129.007 23.7204C129.007 23.7204 129.007 23.7204 129.007 23.7204C129.007 23.7204 129.007 23.7204 129.007 23.7204C129.007 23.7204 129.006 23.7204 129.006 23.7204C129.006 23.7204 129.006 23.7204 129.006 23.7204C129.006 23.7204 129.006 23.7204 129.006 23.7204C129.006 23.7204 129.006 23.7204 129.006 23.7204C129.005 23.7204 129.005 23.7204 129.005 23.7204C129.005 23.7204 129.005 23.7204 129.005 23.7204C129.005 23.7204 129.005 23.7204 129.005 23.7204C129.005 23.7204 129.005 23.7204 129.005 23.7204C129.004 23.7204 129.004 23.7204 129.004 23.7204C129.004 23.7204 129.004 23.7204 129.004 23.7204C129.004 23.7204 129.004 23.7204 129.004 23.7204C129.004 23.7204 129.004 23.7204 129.003 23.7204C129.003 23.7204 129.003 23.7204 129.003 23.7204C129.003 23.7204 129.003 23.7204 129.003 23.7204C129.003 23.7204 129.003 23.7204 129.003 23.7204C129.003 23.7204 129.002 23.7204 129.002 23.7204C129.002 23.7204 129.002 23.7204 129.002 23.7204C129.002 23.7204 129.002 23.7204 129.002 23.7204C129.002 23.7204 129.002 23.7204 129.002 23.7204C129.001 23.7204 129.001 23.7204 129.001 23.7204C129.001 23.7204 129.001 23.7204 129.001 23.7204C129.001 23.7204 129.001 23.7204 129.001 23.7204C129.001 23.7204 129.001 23.7204 129.001 23.7204C129 23.7204 129 23.7204 129 23.7204C129 23.7204 129 23.7204 129 23.7204C129 23.7204 129 23.7204 129 23.7204C129 23.7204 129 23.7204 128.999 23.7204C128.999 23.7204 128.999 23.7204 128.999 23.7204C128.999 23.7204 128.999 23.7204 128.999 23.7204C128.999 23.7204 128.999 23.7204 128.999 23.7204C128.999 23.7204 128.998 23.7204 128.998 23.7204C128.998 23.7204 128.998 23.7204 128.998 23.7204C128.998 23.7204 128.998 23.7204 128.998 23.7204C128.998 23.7204 128.998 23.7204 128.998 23.7204C128.998 23.7204 128.997 23.7204 128.997 23.7204C128.997 23.7204 128.997 23.7204 128.997 23.7204C128.997 23.7204 128.997 23.7204 128.997 23.7204C128.997 23.7204 128.997 23.7204 128.997 23.7204C128.996 23.7204 128.996 23.7204 128.996 23.7204C128.996 23.7204 128.996 23.7204 128.996 23.7204C128.996 23.7204 128.996 23.7204 128.996 23.7204C128.996 23.7204 128.996 23.7204 128.995 23.7204C128.995 23.7204 128.995 23.7204 128.995 23.7204C128.995 23.7204 128.995 23.7204 128.995 23.7204C128.995 23.7204 128.995 23.7204 128.995 23.7204C128.995 23.7204 128.995 23.7204 128.994 23.7204C128.994 23.7204 128.994 23.7204 128.994 23.7204C128.994 23.7204 128.994 23.7204 128.994 23.7204C128.994 23.7204 128.994 23.7204 128.994 23.7204C128.994 23.7204 128.993 23.7204 128.993 23.7204C128.993 23.7204 128.993 23.7204 128.993 23.7204C128.993 23.7204 128.993 23.7204 128.993 23.7204C128.993 23.7204 128.993 23.7204 128.993 23.7204C128.993 23.7204 128.992 23.7204 128.992 23.7204C128.992 23.7204 128.992 23.7204 128.992 23.7204C128.992 23.7204 128.992 23.7204 128.992 23.7204C128.992 23.7204 128.992 23.7204 128.992 23.7204C128.991 23.7204 128.991 23.7204 128.991 23.7204C128.991 23.7204 128.991 23.7204 128.991 23.7204C128.991 23.7204 128.991 23.7204 128.991 23.7204C128.991 23.7204 128.991 23.7204 128.99 23.7204C128.99 23.7204 128.99 23.7204 128.99 23.7204C128.99 23.7204 128.99 23.7204 128.99 23.7204C128.99 23.7204 128.99 23.7204 128.99 23.7204C128.99 23.7204 128.99 23.7204 128.989 23.7204C128.989 23.7204 128.989 23.7204 128.989 23.7204C128.989 23.7204 128.989 23.7204 128.989 23.7204C128.989 23.7204 128.989 23.7204 128.989 23.7204C128.989 23.7204 128.988 23.7204 128.988 23.7204C128.988 23.7204 128.988 23.7204 128.988 23.7204C128.988 23.7204 128.988 23.7204 128.988 23.7204C128.988 23.7204 128.988 23.7204 128.988 23.7204C128.988 23.7204 128.987 23.7204 128.987 23.7204C128.987 23.7204 128.987 23.7204 128.987 23.7204C128.987 23.7204 128.987 23.7204 128.987 23.7204C128.987 23.7204 128.987 23.7204 128.987 23.7204C128.986 23.7204 128.986 23.7204 128.986 23.7204C128.986 23.7204 128.986 23.7204 128.986 23.7204C128.986 23.7204 128.986 23.7204 128.986 23.7204C128.986 23.7204 128.986 23.7204 128.986 23.7204C128.985 23.7204 128.985 23.7204 128.985 23.7204C128.985 23.7204 128.985 23.7204 128.985 23.7204C128.985 23.7204 128.985 23.7204 128.985 23.7204C128.985 23.7204 128.985 23.7204 128.984 23.7204C128.984 23.7204 128.984 23.7204 128.984 23.7204C128.984 23.7204 128.984 23.7204 128.984 23.7204C128.984 23.7204 128.984 23.7204 128.984 23.7204C128.984 23.7204 128.984 23.7204 128.983 23.7204C128.983 23.7204 128.983 23.7204 128.983 23.7204C128.983 23.7204 128.983 23.7204 128.983 23.7204C128.983 23.7204 128.983 23.7204 128.983 23.7204C128.983 23.7204 128.982 23.7204 128.982 23.7204C128.982 23.7204 128.982 23.7204 128.982 23.7204C128.982 23.7204 128.982 23.7204 128.982 23.7204C128.982 23.7204 128.982 23.7204 128.982 23.7204C128.982 23.7204 128.981 23.7204 128.981 23.7204C128.981 23.7204 128.981 23.7204 128.981 23.7204C128.981 23.7204 128.981 23.7204 128.981 23.7204C128.981 23.7204 128.981 23.7204 128.981 23.7204C128.98 23.7204 128.98 23.7204 128.98 23.7204C128.98 23.7204 128.98 23.7204 128.98 23.7204C128.98 23.7204 128.98 23.7204 128.98 23.7204C128.98 23.7204 128.98 23.7204 128.98 23.7204C128.979 23.7204 128.979 23.7204 128.979 23.7204C128.979 23.7204 128.979 23.7204 128.979 23.7204C128.979 23.7204 128.979 23.7204 128.979 23.7204C128.979 23.7204 128.979 23.7204 128.978 23.7204C128.978 23.7204 128.978 23.7204 128.978 23.7204C128.978 23.7204 128.978 23.7204 128.978 23.7204C128.978 23.7204 128.978 23.7204 128.978 23.7204C128.978 23.7204 128.978 23.7204 128.977 23.7204C128.977 23.7204 128.977 23.7204 128.977 23.7204C128.977 23.7204 128.977 23.7204 128.977 23.7204C128.977 23.7204 128.977 23.7204 128.977 23.7204C128.977 23.7204 128.976 23.7204 128.976 23.7204C128.976 23.7204 128.976 23.7204 128.976 23.7204C128.976 23.7204 128.976 23.7204 128.976 23.7204C128.976 23.7204 128.976 23.7204 128.976 23.7204C128.976 23.7204 128.975 23.7204 128.975 23.7204C128.975 23.7204 128.975 23.7204 128.975 23.7204C128.975 23.7204 128.975 23.7204 128.975 23.7204C128.975 23.7204 128.975 23.7204 128.975 23.7204C128.974 23.7204 128.974 23.7204 128.974 23.7204C128.974 23.7204 128.974 23.7204 128.974 23.7204C128.974 23.7204 128.974 23.7204 128.974 23.7204C128.974 23.7204 128.974 23.7204 128.974 23.7204C128.973 23.7204 128.973 23.7204 128.973 23.7204C128.973 23.7204 128.973 23.7204 128.973 23.7204C128.973 23.7204 128.973 23.7204 128.973 23.7204C128.973 23.7204 128.973 23.7204 128.972 23.7204C128.972 23.7204 128.972 23.7204 128.972 23.7204C128.972 23.7204 128.972 23.7204 128.972 23.7204C128.972 23.7204 128.972 23.7204 128.972 23.7204C128.972 23.7204 128.972 23.7204 128.971 23.7204C128.971 23.7204 128.971 23.7204 128.971 23.7204C128.971 23.7204 128.971 23.7204 128.971 23.7204C128.971 23.7204 128.971 23.7204 128.971 23.7204C128.971 23.7204 128.97 23.7204 128.97 23.7204C128.97 23.7204 128.97 23.7204 128.97 23.7204C128.97 23.7204 128.97 23.7204 128.97 23.7204C128.97 23.7204 128.97 23.7204 128.97 23.7204C128.97 23.7204 128.969 23.7204 128.969 23.7204C128.969 23.7204 128.969 23.7204 128.969 23.7204C128.969 23.7204 128.969 23.7204 128.969 23.7204C128.969 23.7204 128.969 23.7204 128.969 23.7204C128.969 23.7204 128.968 23.7204 128.968 23.7204C128.968 23.7204 128.968 23.7204 128.968 23.7204C128.968 23.7204 128.968 23.7204 128.968 23.7204C128.968 23.7204 128.968 23.7204 128.968 23.7204C128.967 23.7204 128.967 23.7204 128.967 23.7204C128.967 23.7204 128.967 23.7204 128.967 23.7204C128.967 23.7204 128.967 23.7204 128.967 23.7204C128.967 23.7204 128.967 23.7204 128.967 23.7204C128.966 23.7204 128.966 23.7204 128.966 23.7204C128.966 23.7204 128.966 23.7204 128.966 23.7204C128.966 23.7204 128.966 23.7204 128.966 23.7204C128.966 23.7204 128.966 23.7204 128.965 23.7204C128.965 23.7204 128.965 23.7204 128.965 23.7204C128.965 23.7204 128.965 23.7204 128.965 23.7204C128.965 23.7204 128.965 23.7204 128.965 23.7204C128.965 23.7204 128.965 23.7204 128.964 23.7204C128.964 23.7204 128.964 23.7204 128.964 23.7204C128.964 23.7204 128.964 23.7204 128.964 23.7204C128.964 23.7204 128.964 23.7204 128.964 23.7204C128.964 23.7204 128.963 23.7204 128.963 23.7204C128.963 23.7204 128.963 23.7204 128.963 23.7204C128.963 23.7204 128.963 23.7204 128.963 23.7204C128.963 23.7204 128.963 23.7204 128.963 23.7204C128.963 23.7204 128.962 23.7204 128.962 23.7204C128.962 23.7204 128.962 23.7204 128.962 23.7204C128.962 23.7204 128.962 23.7204 128.962 23.7204C128.962 23.7204 128.962 23.7204 128.962 23.7204C128.962 23.7204 128.961 23.7204 128.961 23.7204C128.961 23.7204 128.961 23.7204 128.961 23.7204C128.961 23.7204 128.961 23.7204 128.961 23.7204C128.961 23.7204 128.961 23.7204 128.961 23.7204C128.96 23.7204 128.96 23.7204 128.96 23.7204C128.96 23.7204 128.96 23.7204 128.96 23.7204C128.96 23.7204 128.96 23.7204 128.96 23.7204C128.96 23.7204 128.96 23.7204 128.96 23.7204C128.959 23.7204 128.959 23.7204 128.959 23.7204C128.959 23.7204 128.959 23.7204 128.959 23.7204C128.959 23.7204 128.959 23.7204 128.959 23.7204C128.959 23.7204 128.959 23.7204 128.958 23.7204C128.958 23.7204 128.958 23.7204 128.958 23.7204C128.958 23.7204 128.958 23.7204 128.958 23.7204C128.958 23.7204 128.958 23.7204 128.958 23.7204C128.958 23.7204 128.958 23.7204 128.957 23.7204C128.957 23.7204 128.957 23.7204 128.957 23.7204C128.957 23.7204 128.957 23.7204 128.957 23.7204C128.957 23.7204 128.957 23.7204 128.957 23.7204C128.957 23.7204 128.956 23.7204 128.956 23.7204C128.956 23.7204 128.956 23.7204 128.956 23.7204C128.956 23.7204 128.956 23.7204 128.956 23.7204C128.956 23.7204 128.956 23.7204 128.956 23.7204C128.956 23.7204 128.955 23.7204 128.955 23.7204C128.955 23.7204 128.955 23.7204 128.955 23.7204C128.955 23.7204 128.955 23.7204 128.955 23.7204C128.955 23.7204 128.955 23.7204 128.955 23.7204C128.954 23.7204 128.954 23.7204 128.954 23.7204C128.954 23.7204 128.954 23.7204 128.954 23.7204C128.954 23.7204 128.954 23.7204 128.954 23.7204C128.954 23.7204 128.954 23.7204 128.954 23.7204C128.953 23.7204 128.953 23.7204 128.953 23.7204C128.953 23.7204 128.953 23.7204 128.953 23.7204C128.953 23.7204 128.953 23.7204 128.953 23.7204C128.953 23.7204 128.953 23.7204 128.952 23.7204C128.952 23.7204 128.952 23.7204 128.952 23.7204C128.952 23.7204 128.952 23.7204 128.952 23.7204C128.952 23.7204 128.952 23.7204 128.952 23.7204C128.952 23.7204 128.952 23.7204 128.951 23.7204C128.951 23.7204 128.951 23.7204 128.951 23.7204C128.951 23.7204 128.951 23.7204 128.951 23.7204C128.951 23.7204 128.951 23.7204 128.951 23.7204C128.951 23.7204 128.951 23.7204 128.95 23.7204C128.95 23.7204 128.95 23.7204 128.95 23.7204C128.95 23.7204 128.95 23.7204 128.95 23.7204C128.95 23.7204 128.95 23.7204 128.95 23.7204C128.95 23.7204 128.949 23.7204 128.949 23.7204C128.949 23.7204 128.949 23.7204 128.949 23.7204C128.949 23.7204 128.949 23.7204 128.949 23.7204C128.949 23.7204 128.949 23.7204 128.949 23.7204C128.949 23.7204 128.948 23.7204 128.948 23.7204C128.948 23.7204 128.948 23.7204 128.948 23.7204C128.948 23.7204 128.948 23.7204 128.948 23.7204C128.948 23.7204 128.948 23.7204 128.948 23.7204C128.947 23.7204 128.947 23.7204 128.947 23.7204C128.947 23.7204 128.947 23.7204 128.947 23.7204C128.947 23.7204 128.947 23.7204 128.947 23.7204C128.947 23.7204 128.947 23.7204 128.947 23.7204C128.946 23.7204 128.946 23.7204 128.946 23.7204C128.946 23.7204 128.946 23.7204 128.946 23.7204C128.946 23.7204 128.946 23.7204 128.946 23.7204C128.946 23.7204 128.946 23.7204 128.945 23.7204C128.945 23.7204 128.945 23.7204 128.945 23.7204C128.945 23.7204 128.945 23.7204 128.945 23.7204C128.945 23.7204 128.945 23.7204 128.945 23.7204C128.945 23.7204 128.945 23.7204 128.944 23.7204C128.944 23.7204 128.944 23.7204 128.944 23.7204C128.944 23.7204 128.944 23.7204 128.944 23.7204C128.944 23.7204 128.944 23.7204 128.944 23.7204C128.944 23.7204 128.943 23.7204 128.943 23.7204C128.943 23.7204 128.943 23.7204 128.943 23.7204C128.943 23.7204 128.943 23.7204 128.943 23.7204C128.943 23.7204 128.943 23.7204 128.943 23.7204C128.943 23.7204 128.942 23.7204 128.942 23.7204C128.942 23.7204 128.942 23.7204 128.942 23.7204C128.942 23.7204 128.942 23.7204 128.942 23.7204C128.942 23.7204 128.942 23.7204 128.942 23.7204C128.941 23.7204 128.941 23.7204 128.941 23.7204C128.941 23.7204 128.941 23.7204 128.941 23.7204C128.941 23.7204 128.941 23.7204 128.941 23.7204C128.941 23.7204 128.941 23.7204 128.94 23.7204C128.94 23.7204 128.94 23.7204 128.94 23.7204C128.94 23.7204 128.94 23.7204 128.94 23.7204C128.94 23.7204 128.94 23.7204 128.94 23.7204C128.94 23.7204 128.94 23.7204 128.939 23.7204C128.939 23.7204 128.939 23.7204 128.939 23.7204C128.939 23.7204 128.939 23.7204 128.939 23.7204C128.939 23.7204 128.939 23.7204 128.939 23.7204C128.939 23.7204 128.938 23.7204 128.938 23.7204C128.938 23.7204 128.938 23.7204 128.938 23.7204C128.938 23.7204 128.938 23.7204 128.938 23.7204C128.938 23.7204 128.938 23.7204 128.938 23.7204C128.938 23.7204 128.937 23.7204 128.937 23.7204C128.937 23.7204 128.937 23.7204 128.937 23.7204C128.937 23.7204 128.937 23.7204 128.937 23.7204C128.937 23.7204 128.937 23.7204 128.937 23.7204C128.936 23.7204 128.936 23.7204 128.936 23.7204C128.936 23.7204 128.936 23.7204 128.936 23.7204C128.936 23.7204 128.936 23.7204 128.936 23.7204C128.936 23.7204 128.936 23.7204 128.936 23.7204C128.935 23.7204 128.935 23.7204 128.935 23.7204C128.935 23.7204 128.935 23.7204 128.935 23.7204C128.935 23.7204 128.935 23.7204 128.935 23.7204C128.935 23.7204 128.935 23.7204 128.934 23.7204C128.934 23.7204 128.934 23.7204 128.934 23.7204C128.934 23.7204 128.934 23.7204 128.934 23.7204C128.934 23.7204 128.934 23.7204 128.934 23.7204C128.934 23.7204 128.933 23.7204 128.933 23.7204C128.933 23.7204 128.933 23.7204 128.933 23.7204C128.933 23.7204 128.933 23.7204 128.933 23.7204C128.933 23.7204 128.933 23.7204 128.933 23.7204C128.933 23.7204 128.932 23.7204 128.932 23.7204C128.932 23.7204 128.932 23.7204 128.932 23.7204C128.932 23.7204 128.932 23.7204 128.932 23.7204C128.932 23.7204 128.932 23.7204 128.932 23.7204C128.931 23.7204 128.931 23.7204 128.931 23.7204C128.931 23.7204 128.931 23.7204 128.931 23.7204C128.931 23.7204 128.931 23.7204 128.931 23.7204C128.931 23.7204 128.931 23.7204 128.93 23.7204C128.93 23.7204 128.93 23.7204 128.93 23.7204C128.93 23.7204 128.93 23.7204 128.93 23.7204C128.93 23.7204 128.93 23.7204 128.93 23.7204C128.93 23.7204 128.93 23.7204 128.929 23.7204C128.929 23.7204 128.929 23.7204 128.929 23.7204C128.929 23.7204 128.929 23.7204 128.929 23.7204C128.929 23.7204 128.929 23.7204 128.929 23.7204C128.929 23.7204 128.928 23.7204 128.928 23.7204C128.928 23.7204 128.928 23.7204 128.928 23.7204C128.928 23.7204 128.928 23.7204 128.928 23.7204C128.928 23.7204 128.928 23.7204 128.928 23.7204C128.927 23.7204 128.927 23.7204 128.927 23.7204C128.927 23.7204 128.927 23.7204 128.927 23.7204C128.927 23.7204 128.927 23.7204 128.927 23.7204C128.927 23.7204 128.927 23.7204 128.927 23.7204C128.926 23.7204 128.926 23.7204 128.926 23.7204C128.926 23.7204 128.926 23.7204 128.926 23.7204C128.926 23.7204 128.926 23.7204 128.926 23.7204C128.926 23.7204 128.926 23.7204 128.925 23.7204C128.925 23.7204 128.925 23.7204 128.925 23.7204C128.925 23.7204 128.925 23.7204 128.925 23.7204C128.925 23.7204 128.925 23.7204 128.925 23.7204C128.925 23.7204 128.924 23.7204 128.924 23.7204C128.924 23.7204 128.924 23.7204 128.924 23.7204C128.924 23.7204 128.924 23.7204 128.924 23.7204C128.924 23.7204 128.924 23.7204 128.924 23.7204C128.924 23.7204 128.923 23.7204 128.923 23.7204C128.923 23.7204 128.923 23.7204 128.923 23.7204C128.923 23.7204 128.923 23.7204 128.923 23.7204C128.923 23.7204 128.923 23.7204 128.923 23.7204C128.922 23.7204 128.922 23.7204 128.922 23.7204C128.922 23.7204 128.922 23.7204 128.922 23.7204C128.922 23.7204 128.922 23.7204 128.922 23.7204C128.922 23.7204 128.922 23.7204 128.921 23.7204C128.921 23.7204 128.921 23.7204 128.921 23.7204C128.921 23.7204 128.921 23.7204 128.921 23.7204C128.921 23.7204 128.921 23.7204 128.921 23.7204C128.921 23.7204 128.92 23.7204 128.92 23.7204C128.92 23.7204 128.92 23.7204 128.92 23.7204C128.92 23.7204 128.92 23.7204 128.92 23.7204C128.92 23.7204 128.92 23.7204 128.92 23.7204C128.919 23.7204 128.919 23.7204 128.919 23.7204C128.919 23.7204 128.919 23.7204 128.919 23.7204C128.919 23.7204 128.919 23.7204 128.919 23.7204C128.919 23.7204 128.919 23.7204 128.919 23.7204C128.918 23.7204 128.918 23.7204 128.918 23.7204C128.918 23.7204 128.918 23.7204 128.918 23.7204C128.918 23.7204 128.918 23.7204 128.918 23.7204C128.918 23.7204 128.918 23.7204 128.917 23.7204C128.917 23.7204 128.917 23.7204 128.917 23.7204C128.917 23.7204 128.917 23.7204 128.917 23.7204C128.917 23.7204 128.917 23.7204 128.917 23.7204C128.917 23.7204 128.916 23.7204 128.916 23.7204C128.916 23.7204 128.916 23.7204 128.916 23.7204C128.916 23.7204 128.916 23.7204 128.916 23.7204C128.916 23.7204 128.916 23.7204 128.916 23.7204C128.915 23.7204 128.915 23.7204 128.915 23.7204C128.915 23.7204 128.915 23.7204 128.915 23.7204C128.915 23.7204 128.915 23.7204 128.915 23.7204C128.915 23.7204 128.915 23.7204 128.914 23.7204C128.914 23.7204 128.914 23.7204 128.914 23.7204C128.914 23.7204 128.914 23.7204 128.914 23.7204C128.914 23.7204 128.914 23.7204 128.914 23.7204C128.914 23.7204 128.913 23.7204 128.913 23.7204C128.913 23.7204 128.913 23.7204 128.913 23.7204C128.913 23.7204 128.913 23.7204 128.913 23.7204C128.913 23.7204 128.913 23.7204 128.913 23.7204C128.912 23.7204 128.912 23.7204 128.912 23.7204C128.912 23.7204 128.912 23.7204 128.912 23.7204C128.912 23.7204 128.912 23.7204 128.912 23.7204C128.912 23.7204 128.912 23.7204 128.911 23.7204C128.911 23.7204 128.911 23.7204 128.911 23.7204C128.911 23.7204 128.911 23.7204 128.911 23.7204C128.911 23.7204 128.911 23.7204 128.911 23.7204C128.911 23.7204 128.91 23.7204 128.91 23.7204C128.91 23.7204 128.91 23.7204 128.91 23.7204C128.91 23.7204 128.91 23.7204 128.91 23.7204C128.91 23.7204 128.91 23.7204 128.91 23.7204C128.909 23.7204 128.909 23.7204 128.909 23.7204C128.909 23.7204 128.909 23.7204 128.909 23.7204C128.909 23.7204 128.909 23.7204 128.909 23.7204C128.909 23.7204 128.909 23.7204 128.908 23.7204C128.908 23.7204 128.908 23.7204 128.908 23.7204C128.908 23.7204 128.908 23.7204 128.908 23.7204C128.908 23.7204 128.908 23.7204 128.908 23.7204C128.908 23.7204 128.907 23.7204 128.907 23.7204C128.907 23.7204 128.907 23.7204 128.907 23.7204C128.907 23.7204 128.907 23.7204 128.907 23.7204C128.907 23.7204 128.907 23.7204 128.907 23.7204C128.906 23.7204 128.906 23.7204 128.906 23.7204C128.906 23.7204 128.906 23.7204 128.906 23.7204C128.906 23.7204 128.906 23.7204 128.906 23.7204C128.906 23.7204 128.906 23.7204 128.905 23.7204C128.905 23.7204 128.905 23.7204 128.905 23.7204C128.905 23.7204 128.905 23.7204 128.905 23.7204C128.905 23.7204 128.905 23.7204 128.905 23.7204C128.905 23.7204 128.904 23.7204 128.904 23.7204C128.904 23.7204 128.904 23.7204 128.904 23.7204C128.904 23.7204 128.904 23.7204 128.904 23.7204C128.904 23.7204 128.904 23.7204 128.904 23.7204C128.903 23.7204 128.903 23.7204 128.903 23.7204C128.903 23.7204 128.903 23.7204 128.903 23.7204C128.903 23.7204 128.903 23.7204 128.903 23.7204C128.903 23.7204 128.903 23.7204 128.902 23.7204C128.902 23.7204 128.902 23.7204 128.902 23.7204C128.902 23.7204 128.902 23.7204 128.902 23.7204C128.902 23.7204 128.902 23.7204 128.902 23.7204C128.902 23.7204 128.901 23.7204 128.901 23.7204C128.901 23.7204 128.901 23.7204 128.901 23.7204C128.901 23.7204 128.901 23.7204 128.901 23.7204C128.901 23.7204 128.901 23.7204 128.901 23.7204C128.9 23.7204 128.9 23.7204 128.9 23.7204C128.9 23.7204 128.9 23.7204 128.9 23.7204C128.9 23.7204 128.9 23.7204 128.9 23.7204C128.9 23.7204 128.899 23.7204 128.899 23.7204C128.899 23.7204 128.899 23.7204 128.899 23.7204C128.899 23.7204 128.899 23.7204 128.899 23.7204C128.899 23.7204 128.899 23.7204 128.899 23.7204C128.898 23.7204 128.898 23.7204 128.898 23.7204C128.898 23.7204 128.898 23.7204 128.898 23.7204C128.898 23.7204 128.898 23.7204 128.898 23.7204C128.898 23.7204 128.898 23.7204 128.897 23.7204C128.897 23.7204 128.897 23.7204 128.897 23.7204C128.897 23.7204 128.897 23.7204 128.897 23.7204C128.897 23.7204 128.897 23.7204 128.897 23.7204C128.897 23.7204 128.896 23.7204 128.896 23.7204C128.896 23.7204 128.896 23.7204 128.896 23.7204V24.73ZM128.588 24.464L131.421 29.7434L132.311 29.2659L129.477 23.9865L128.588 24.464ZM131.866 30.0095H134.264V28.9998H131.866V30.0095ZM134.707 29.2622L131.614 23.6149L130.729 24.0999L133.821 29.7471L134.707 29.2622ZM131.347 24.3307C132.296 23.9789 133.028 23.398 133.519 22.6283C134.007 21.8624 134.237 20.9393 134.237 19.9268H133.228C133.228 20.7876 133.033 21.513 132.668 22.0857C132.305 22.6546 131.756 23.1023 130.996 23.384L131.347 24.3307ZM134.237 19.9268C134.237 18.5375 133.804 17.3008 132.881 16.4132C131.96 15.527 130.613 15.0486 128.903 15.0486V16.0582C130.428 16.0582 131.497 16.4824 132.181 17.1408C132.864 17.7978 133.228 18.7479 133.228 19.9268H134.237ZM128.903 15.0486H123.93V16.0582H128.903V15.0486ZM123.425 15.5534V29.5046H124.435V15.5534H123.425ZM126.54 22.4132V17.3586H125.53V22.4132H126.54ZM126.035 17.8634H128.678V16.8538H126.035V17.8634ZM128.678 17.8634C129.645 17.8634 130.234 18.0937 130.58 18.4184C130.921 18.7375 131.109 19.2253 131.109 19.9268H132.119C132.119 19.0478 131.879 18.2515 131.27 17.6817C130.668 17.1173 129.789 16.8538 128.678 16.8538V17.8634ZM131.109 19.9268C131.109 20.6237 130.921 21.0866 130.59 21.3853C130.249 21.6932 129.666 21.9084 128.705 21.9084V22.918C129.795 22.918 130.666 22.6768 131.267 22.1349C131.878 21.5837 132.119 20.8035 132.119 19.9268H131.109ZM128.705 21.9084H126.035V22.918H128.705V21.9084Z" fill="white"/>
<path d="M61.6644 36.7515H62.8397C62.8042 35.458 61.6605 34.5193 60.0198 34.5193C58.3989 34.5193 57.1566 35.4461 57.1566 36.8383C57.1566 37.9623 57.9611 38.6209 59.2587 38.9719L60.2131 39.2322C61.0768 39.461 61.7433 39.7449 61.7433 40.4627C61.7433 41.2515 60.99 41.7721 59.9528 41.7721C59.0142 41.7721 58.2333 41.354 58.1623 40.4746H56.9397C57.0186 41.9377 58.1505 42.8409 59.9607 42.8409C61.8577 42.8409 62.9501 41.8431 62.9501 40.4746C62.9501 39.0193 61.6526 38.4553 60.6272 38.2029L59.8384 37.9978C59.2074 37.8361 58.3674 37.5403 58.3713 36.7673C58.3713 36.0811 58.9984 35.5723 59.9922 35.5723C60.919 35.5723 61.5777 36.0062 61.6644 36.7515ZM64.0081 35.6788H66.5243V42.7068H67.739V35.6788H70.2591V34.6297H64.0081V35.6788ZM78.3204 38.6683C78.3204 36.085 76.7744 34.5193 74.6841 34.5193C72.586 34.5193 71.0439 36.085 71.0439 38.6683C71.0439 41.2476 72.586 42.8172 74.6841 42.8172C76.7744 42.8172 78.3204 41.2515 78.3204 38.6683ZM77.1136 38.6683C77.1136 40.6363 76.0724 41.705 74.6841 41.705C73.292 41.705 72.2547 40.6363 72.2547 38.6683C72.2547 36.7003 73.292 35.6315 74.6841 35.6315C76.0724 35.6315 77.1136 36.7003 77.1136 38.6683ZM86.5483 37.2564C86.2722 35.5289 84.9195 34.5193 83.2118 34.5193C81.1215 34.5193 79.5795 36.085 79.5795 38.6683C79.5795 41.2515 81.1136 42.8172 83.2118 42.8172C84.9865 42.8172 86.284 41.705 86.5483 40.1078L85.3178 40.1038C85.1088 41.1371 84.2411 41.705 83.2197 41.705C81.8354 41.705 80.7902 40.6441 80.7902 38.6683C80.7902 36.7082 81.8314 35.6315 83.2236 35.6315C84.2529 35.6315 85.1167 36.2112 85.3178 37.2564H86.5483ZM88.0065 42.7068H89.2252V40.1945L90.1796 39.0981L92.7904 42.7068H94.2576L90.9881 38.266L94.2457 34.6297H92.7116L89.3238 38.4868H89.2252V34.6297H88.0065V42.7068Z" fill="#292929"/>
<g clip-path="url(#clip0_1055_9201)">
<path d="M13 27.0947C19.3777 20.717 25.7683 14.3521 32.1717 8C34.5965 10.421 37.0406 12.8266 39.4462 15.2668C37.5525 17.1798 35.6203 19.0523 33.7093 20.9479C35.1989 22.4374 36.6961 23.9174 38.1876 25.4031C40.0967 23.4978 42.0038 21.5907 43.8879 19.6623C46.2973 22.1391 48.8146 24.5178 51.2009 27.0139C51.1105 27.4449 50.6236 27.6951 50.3484 28.0319C44.2734 34.0619 38.1998 40.0997 32.1274 46.1451C29.6641 43.7074 27.2078 41.264 24.7586 38.8148C26.683 36.8672 28.6768 34.9947 30.5801 33.0279C29.0732 31.6076 27.626 30.1238 26.1307 28.6882C24.1543 30.553 22.3087 32.5544 20.3727 34.4616C17.9151 32.006 15.421 29.5869 13 27.0947ZM32.1255 11.0272C31.4904 11.8091 31.0664 12.7406 30.8938 13.733C30.5705 15.6402 30.8226 17.7513 32.0485 19.314C32.7259 18.7944 33.2917 18.1497 33.9018 17.555C34.71 16.7294 35.578 15.9635 36.3516 15.1052C34.9179 13.7657 33.5823 12.3301 32.1255 11.0272ZM28.061 14.8011C27.1911 15.7403 26.2327 16.6313 25.64 17.786C25.141 18.7079 24.8545 19.7297 24.8016 20.7766C24.7486 21.8235 24.9305 22.869 25.334 23.8365C25.9344 25.3434 27.1026 26.5077 28.2496 27.6085C29.7391 29.0788 31.2152 30.5645 32.7086 32.0348C33.6285 32.9412 34.4599 33.9785 34.9217 35.1987C35.476 36.6093 35.5126 38.1431 35.8128 39.6134C37.0021 38.4914 38.2222 37.3175 38.8785 35.7895C39.9985 33.2684 39.4385 30.1546 37.5891 28.1262C36.0707 26.4923 34.4579 24.9508 32.8818 23.3747C31.5135 22.091 30.1009 20.7516 29.3735 18.983C28.7172 17.5685 28.6479 15.9904 28.5613 14.4605C28.3701 14.5332 28.1987 14.6499 28.061 14.8011ZM16.1061 27.0831C17.484 28.5072 18.8754 29.9314 20.3515 31.2535C21.7756 29.8217 23.2113 28.3976 24.5988 26.9311C23.2434 25.0974 22.5475 22.8593 22.6243 20.5803C20.4227 22.7242 18.2827 24.9219 16.1061 27.0831ZM39.6714 27.1659C41.0454 29.0076 41.6767 31.2977 41.6632 33.5802C43.8609 31.4132 46.0664 29.252 48.2353 27.0562C46.8593 25.6263 45.439 24.2349 44.0457 22.8223C42.5908 24.2715 41.1012 25.6898 39.6714 27.1659ZM27.932 38.9148C29.36 40.3389 30.7514 41.8016 32.2467 43.1641C32.8683 41.7708 33.3706 40.2774 33.3167 38.7378C33.2999 37.2871 32.8384 35.8765 31.9946 34.6964C30.609 36.0762 29.206 37.4388 27.9224 38.9206L27.932 38.9148Z" fill="white"/>
<path d="M32.1252 11.0269C33.582 12.3297 34.9176 13.7654 36.3436 15.1048C35.5738 15.9631 34.7021 16.7291 33.8938 17.5547C33.2837 18.1494 32.7179 18.7941 32.0405 19.3137C30.8223 17.751 30.5702 15.6398 30.8858 13.7327C31.0606 12.7395 31.4873 11.8079 32.1252 11.0269Z" fill="#599F22"/>
<path d="M28.0622 14.8006C28.2005 14.6491 28.3726 14.5324 28.5645 14.46C28.6511 15.9899 28.7204 17.568 29.3766 18.9825C30.1041 20.7511 31.5166 22.0905 32.885 23.3741C34.4611 24.9503 36.0738 26.4918 37.5922 28.1257C39.4417 30.1541 40.0017 33.2679 38.8816 35.789C38.2254 37.317 37.0053 38.4832 35.8159 39.6129C35.5157 38.1426 35.4792 36.6088 34.9249 35.1982C34.463 33.978 33.6317 32.9407 32.7118 32.0343C31.2184 30.564 29.7423 29.0783 28.2527 27.608C27.098 26.5072 25.9434 25.3429 25.3371 23.836C24.9334 22.8687 24.7512 21.8232 24.8038 20.7763C24.8564 19.7294 25.1425 18.7075 25.6412 17.7855C26.234 16.6308 27.1923 15.7397 28.0622 14.8006Z" fill="#599F22"/>
<path d="M16.1055 27.0827C18.2821 24.9215 20.4221 22.7238 22.6237 20.5857C22.5469 22.8647 23.2427 25.1028 24.5982 26.9365C23.2106 28.4029 21.775 29.8232 20.3509 31.2589C18.8748 29.931 17.4834 28.5068 16.1055 27.0827Z" fill="#599F22"/>
<path d="M39.6719 27.1653C41.1018 25.6892 42.5913 24.2786 44.0462 22.8198C45.4395 24.2343 46.8598 25.6257 48.2358 27.0537C46.0669 29.2495 43.8615 31.4107 41.6637 33.5777C41.6772 31.2972 41.046 29.007 39.6719 27.1653Z" fill="#599F22"/>
<path d="M27.9219 38.9199C29.2055 37.4438 30.6161 36.0813 31.9845 34.686C32.8283 35.8662 33.2897 37.2768 33.3066 38.7274C33.3605 40.267 32.8582 41.7662 32.2366 43.1537C30.7412 41.8066 29.3498 40.3382 27.9219 38.9199Z" fill="#599F22"/>
</g>
<defs>
<clipPath id="clip0_1055_9201">
<rect width="38.2009" height="38.1451" fill="white" transform="translate(13 8)"/>
</clipPath>
</defs>
</svg>
