<svg width="38" height="37" viewBox="0 0 38 37" fill="none" xmlns="http://www.w3.org/2000/svg">
<path opacity="0.1" fill-rule="evenodd" clip-rule="evenodd" d="M19.2448 36C28.95 36 36.8176 28.165 36.8176 18.5C36.8176 8.83502 28.95 1 19.2448 1C9.53952 1 1.67188 8.83502 1.67188 18.5C1.67188 28.165 9.53952 36 19.2448 36Z" stroke="#444444" stroke-width="1.5"/>
<path d="M15.2124 14.9671C16.0352 14.9671 16.7021 14.3029 16.7021 13.4836C16.7021 12.6642 16.0352 12 15.2124 12C14.3896 12 13.7227 12.6642 13.7227 13.4836C13.7227 14.3029 14.3896 14.9671 15.2124 14.9671Z" fill="#336F09"/>
<path d="M16.4539 15.958H13.9709C13.8339 15.958 13.7227 16.0688 13.7227 16.2053V23.623C13.7227 23.7595 13.8339 23.8703 13.9709 23.8703H16.4539C16.5909 23.8703 16.7021 23.7595 16.7021 23.623V16.2053C16.7021 16.0688 16.5909 15.958 16.4539 15.958Z" fill="#336F09"/>
<path d="M23.8534 15.5464C22.7922 15.1844 21.4648 15.5024 20.6688 16.0726C20.6415 15.9662 20.5442 15.8871 20.4285 15.8871H17.9456C17.8085 15.8871 17.6973 15.9979 17.6973 16.1344V23.5521C17.6973 23.6886 17.8085 23.7994 17.9456 23.7994H20.4285C20.5655 23.7994 20.6768 23.6886 20.6768 23.5521V18.2212C21.078 17.8771 21.5949 17.7673 22.018 17.9463C22.4282 18.1189 22.6631 18.5402 22.6631 19.1015V23.5521C22.6631 23.6886 22.7743 23.7994 22.9114 23.7994H25.3943C25.5313 23.7994 25.6426 23.6886 25.6426 23.5521V18.6035C25.6143 16.5715 24.6544 15.8194 23.8534 15.5464Z" fill="#336F09"/>
</svg>
