<svg width="37" height="37" viewBox="0 0 37 37" fill="none" xmlns="http://www.w3.org/2000/svg">
<path opacity="0.1" fill-rule="evenodd" clip-rule="evenodd" d="M18.6608 36C28.3661 36 36.2338 28.165 36.2338 18.5C36.2338 8.83502 28.3661 1 18.6608 1C8.95556 1 1.08789 8.83502 1.08789 18.5C1.08789 28.165 8.95556 36 18.6608 36Z" stroke="#444444" stroke-width="1.5"/>
<path d="M24.4039 15.2647C24.3224 15.1729 24.1909 15.1498 24.083 15.2064C24.016 15.2416 23.8899 15.2878 23.7402 15.3334C23.9291 15.0762 24.0809 14.7882 24.148 14.5293C24.1769 14.4177 24.1346 14.3001 24.0423 14.2336C23.95 14.1677 23.8271 14.1677 23.7348 14.2336C23.5894 14.3375 22.8876 14.6497 22.4438 14.7508C21.441 13.8511 20.274 13.7577 19.0608 14.4831C18.0746 15.0729 17.8599 16.2721 17.9018 17.0031C15.6445 16.7805 14.2413 15.5593 13.4515 14.5485C13.3963 14.4776 13.3072 14.4403 13.2235 14.4458C13.1355 14.4524 13.0561 14.5024 13.011 14.5799C12.6375 15.2257 12.534 15.9396 12.7127 16.6447C12.8103 17.0295 12.9809 17.3686 13.1789 17.6434C13.084 17.5956 12.9922 17.5357 12.9058 17.4642C12.8264 17.3972 12.7153 17.3845 12.6214 17.429C12.5281 17.4747 12.4685 17.5714 12.4685 17.6775C12.4685 18.8883 13.2079 19.6962 13.8985 20.1183C13.7869 20.1045 13.6704 20.0793 13.5529 20.0424C13.4521 20.0111 13.3426 20.0424 13.2728 20.1238C13.2031 20.2046 13.1865 20.32 13.2299 20.4184C13.6179 21.2972 14.3529 21.9018 15.2624 22.121C14.4683 22.5987 13.4054 22.8328 12.432 22.7179C12.3059 22.6998 12.1858 22.7817 12.1461 22.9059C12.1063 23.0301 12.1584 23.1664 12.2695 23.2302C13.7461 24.0793 15.0811 24.3827 16.2347 24.3827C17.9136 24.3827 19.2094 23.7407 19.9982 23.2038C22.1246 21.7583 23.4499 19.1631 23.2653 16.841C23.606 16.5832 24.1158 16.1072 24.4318 15.5955C24.4973 15.4922 24.4855 15.3559 24.4039 15.2647Z" fill="#336F09"/>
</svg>
