<svg width="20" height="14" viewBox="0 0 20 14" fill="none" xmlns="http://www.w3.org/2000/svg">
<path d="M15.4089 8.12519L12.329 11.2041L12.3289 11.2041C12.1178 11.4153 11.9992 11.7016 11.9992 12.0002C11.9992 12.2988 12.1178 12.5851 12.3289 12.7962C12.5401 13.0074 12.8264 13.126 13.125 13.126C13.4236 13.126 13.7099 13.0074 13.9211 12.7962L18.9206 7.79668C18.9207 7.79661 18.9208 7.79654 18.9208 7.79647C19.0255 7.69201 19.1085 7.56795 19.1652 7.43136C19.2219 7.29469 19.2511 7.14817 19.2511 7.00019C19.2511 6.8522 19.2219 6.70568 19.1652 6.56902C19.1085 6.43243 19.0255 6.30836 18.9208 6.20391C18.9208 6.20383 18.9207 6.20376 18.9206 6.20369L13.9211 1.20414C13.7099 0.993006 13.4236 0.874398 13.125 0.874398C12.8264 0.874398 12.5401 0.993006 12.3289 1.20413C12.1178 1.41526 11.9992 1.70161 11.9992 2.00018C11.9992 2.29877 12.1178 2.58511 12.3289 2.79624L12.329 2.7963L15.4089 5.87519L1.875 5.87519C1.57663 5.87519 1.29048 5.99371 1.0795 6.20469C0.868526 6.41567 0.75 6.70182 0.75 7.00019C0.75 7.29856 0.868527 7.5847 1.0795 7.79568C1.29048 8.00666 1.57663 8.12519 1.875 8.12519H15.4089Z" fill="#599F22" stroke="#599F22"/>
</svg>
